# xmcd
#
# Track frame offsets: 
#        150
#        22690
#        38344
#        51367
#        73250
#        90597
#        121951
#        135019
#        155967
#        167797
#        187507
#        200854
#        221889
#        241963
#        258136
#        274635
#
# Disc length: 3918 seconds
#
# Revision: 2
# Processed by: cddbd v1.5.2PL0 Copyright (c) Steve Scherf et al.
# Submitted via: ExactAudioCopy v0.99pb4
#
DISCID=d70f4c10
DTITLE=Various Artist - Delmark, 50 Years Of Jazz and Blues (Blues, Dis
DTITLE=c 2)
DYEAR=2003
DGENRE=Blues
TTITLE0=Tail Dragger - My Woman Is Gone
TTITLE1=Magic Sam - Everything's Gonna Be Alright
TTITLE2=Roosevelt Sykes - Kickin' Motor Scooter
TTITLE3=Steve Freund - You Were A Good Old Ride
TTITLE4=Karen Carroll - Help Me
TTITLE5=Carey Bell - So Hard To Leave You Alone
TTITLE6=Reginald R. Robinson - Swampy Lee
TTITLE7=J. B. Hutto - Love Retirement (Want Ad)
TTITLE8=Sunnyland Slim - I'm Just A Lonesome Man
TTITLE9=Big Time Sarah - A Million Of You
TTITLE10=The Big Doowopper - I'm Getting Nearer My Home
TTITLE11=Dave Spector - Blues A-La-King
TTITLE12=Johnny B. Moore - Broke Man
TTITLE13=Luther Allison - Dust My Broom
TTITLE14=Sleepy John Estes - Time Is Drawing Near
TTITLE15=Jimmy Burns - Back To The Delta
EXTD=
EXTT0=
EXTT1=
EXTT2=
EXTT3=
EXTT4=
EXTT5=
EXTT6=
EXTT7=
EXTT8=
EXTT9=
EXTT10=
EXTT11=
EXTT12=
EXTT13=
EXTT14=
EXTT15=
PLAYORDER=
